<mxfile host="65bd71144e">
    <diagram id="YYIMPNH6bMBodtlQfDOM" name="Страница 1">
        <mxGraphModel dx="1179" dy="535" grid="1" gridSize="10" guides="1" tooltips="1" connect="1" arrows="1" fold="1" page="1" pageScale="1" pageWidth="827" pageHeight="1169" math="0" shadow="0">
            <root>
                <mxCell id="0"/>
                <mxCell id="1" parent="0"/>
                <mxCell id="2" style="edgeStyle=none;html=1;exitX=0.5;exitY=1;exitDx=0;exitDy=0;entryX=0.5;entryY=0;entryDx=0;entryDy=0;fontFamily=Verdana;fontColor=#F0F0F0;labelBackgroundColor=#2A2A2A;" edge="1" parent="1" source="3" target="5">
                    <mxGeometry relative="1" as="geometry"/>
                </mxCell>
                <mxCell id="3" value="Начало" style="rounded=1;whiteSpace=wrap;html=1;fontFamily=Verdana;fontColor=#F0F0F0;" vertex="1" parent="1">
                    <mxGeometry x="330" width="120" height="60" as="geometry"/>
                </mxCell>
                <mxCell id="4" style="edgeStyle=none;html=1;exitX=0.5;exitY=1;exitDx=0;exitDy=0;entryX=0.5;entryY=0;entryDx=0;entryDy=0;fontFamily=Verdana;fontColor=#F0F0F0;labelBackgroundColor=#2A2A2A;" edge="1" parent="1" source="5" target="8">
                    <mxGeometry relative="1" as="geometry"/>
                </mxCell>
                <mxCell id="5" value="&lt;div style=&quot;font-size: 14px ; line-height: 19px&quot;&gt;&lt;div style=&quot;line-height: 19px&quot;&gt;&lt;div style=&quot;line-height: 19px&quot;&gt;&lt;div style=&quot;line-height: 19px;&quot;&gt;&lt;font&gt;array()&lt;br&gt;&lt;/font&gt;&lt;/div&gt;&lt;div style=&quot;line-height: 19px;&quot;&gt;&lt;font&gt;size=length(array)&lt;/font&gt;&lt;/div&gt;&lt;div style=&quot;line-height: 19px;&quot;&gt;&lt;font&gt;&lt;span style=&quot;&quot;&gt;newArray&lt;/span&gt;&lt;font&gt;(&lt;/font&gt;&lt;font&gt;size&lt;/font&gt;&lt;font&gt;)&lt;/font&gt;&lt;/font&gt;&lt;/div&gt;&lt;div style=&quot;line-height: 19px;&quot;&gt;&lt;div style=&quot;line-height: 19px&quot;&gt;&lt;div style=&quot;&quot;&gt;&lt;font&gt;&lt;span style=&quot;&quot;&gt;i&lt;/span&gt; = &lt;span style=&quot;&quot;&gt;0&lt;/span&gt;&lt;/font&gt;&lt;/div&gt;&lt;div style=&quot;&quot;&gt;&lt;font&gt;&lt;span style=&quot;&quot;&gt;j&lt;/span&gt; = &lt;span style=&quot;&quot;&gt;0&lt;/span&gt;&lt;/font&gt;&lt;/div&gt;&lt;div&gt;&lt;font&gt;&amp;nbsp; &amp;nbsp; maxLength = 3&lt;/font&gt;&lt;/div&gt;&lt;/div&gt;&lt;/div&gt;&lt;/div&gt;&lt;/div&gt;&lt;/div&gt;" style="rounded=0;whiteSpace=wrap;html=1;fontFamily=Verdana;fontColor=#F0F0F0;labelBackgroundColor=#2A2A2A;" vertex="1" parent="1">
                    <mxGeometry x="205" y="100" width="370" height="120" as="geometry"/>
                </mxCell>
                <mxCell id="6" style="edgeStyle=none;html=1;exitX=1;exitY=0.5;exitDx=0;exitDy=0;entryX=0;entryY=0.5;entryDx=0;entryDy=0;fontFamily=Verdana;fontColor=#F0F0F0;labelBackgroundColor=#2A2A2A;" edge="1" parent="1" source="8">
                    <mxGeometry relative="1" as="geometry">
                        <mxPoint x="550" y="315" as="targetPoint"/>
                    </mxGeometry>
                </mxCell>
                <mxCell id="7" style="edgeStyle=none;html=1;exitX=0.5;exitY=1;exitDx=0;exitDy=0;entryX=0.5;entryY=0;entryDx=0;entryDy=0;fontFamily=Verdana;fontColor=#F0F0F0;labelBackgroundColor=#2A2A2A;" edge="1" parent="1" source="8">
                    <mxGeometry relative="1" as="geometry">
                        <mxPoint x="390" y="430" as="targetPoint"/>
                    </mxGeometry>
                </mxCell>
                <mxCell id="8" value="&lt;div style=&quot;font-size: 14px; line-height: 19px;&quot;&gt;&lt;span style=&quot;&quot;&gt;&lt;span style=&quot;&quot;&gt;i&lt;/span&gt; &amp;lt; &lt;/span&gt;&lt;font&gt;size&lt;/font&gt;&lt;/div&gt;" style="rhombus;whiteSpace=wrap;html=1;labelBackgroundColor=#2A2A2A;fontFamily=Verdana;fontColor=#F0F0F0;" vertex="1" parent="1">
                    <mxGeometry x="300" y="250" width="180" height="130" as="geometry"/>
                </mxCell>
                <mxCell id="9" value="Нет" style="text;html=1;align=center;verticalAlign=middle;resizable=0;points=[];autosize=1;strokeColor=none;fillColor=none;fontFamily=Verdana;fontColor=#F0F0F0;labelBackgroundColor=#2A2A2A;" vertex="1" parent="1">
                    <mxGeometry x="394" y="390" width="40" height="20" as="geometry"/>
                </mxCell>
                <mxCell id="10" value="Да" style="text;html=1;align=center;verticalAlign=middle;resizable=0;points=[];autosize=1;strokeColor=none;fillColor=none;fontFamily=Verdana;fontColor=#F0F0F0;labelBackgroundColor=#2A2A2A;" vertex="1" parent="1">
                    <mxGeometry x="510" y="290" width="30" height="20" as="geometry"/>
                </mxCell>
                <mxCell id="11" style="edgeStyle=none;html=1;exitX=1;exitY=0.5;exitDx=0;exitDy=0;entryX=0;entryY=0.5;entryDx=0;entryDy=0;fontFamily=Verdana;fontColor=#F0F0F0;labelBackgroundColor=#2A2A2A;" edge="1" parent="1" source="13" target="15">
                    <mxGeometry relative="1" as="geometry"/>
                </mxCell>
                <mxCell id="12" style="edgeStyle=none;html=1;entryX=0;entryY=0.5;entryDx=0;entryDy=0;fontFamily=Verdana;fontColor=#F0F0F0;labelBackgroundColor=#2A2A2A;" edge="1" parent="1" source="13" target="8">
                    <mxGeometry relative="1" as="geometry">
                        <mxPoint x="190" y="310" as="targetPoint"/>
                        <Array as="points">
                            <mxPoint x="390" y="720"/>
                            <mxPoint x="190" y="720"/>
                            <mxPoint x="190" y="315"/>
                        </Array>
                    </mxGeometry>
                </mxCell>
                <mxCell id="13" value="&lt;span style=&quot;font-size: 14px;&quot;&gt;Length(&lt;/span&gt;&lt;span style=&quot;font-size: 14px;&quot;&gt;array&lt;/span&gt;&lt;span style=&quot;font-size: 14px;&quot;&gt;[&lt;/span&gt;&lt;span style=&quot;font-size: 14px;&quot;&gt;i&lt;/span&gt;&lt;span style=&quot;font-size: 14px;&quot;&gt;]) &amp;lt;= &lt;/span&gt;&lt;span style=&quot;font-size: 14px;&quot;&gt;maxLength&lt;/span&gt;&lt;span style=&quot;font-size: 14px;&quot;&gt;&lt;br&gt;&lt;/span&gt;" style="rhombus;whiteSpace=wrap;html=1;labelBackgroundColor=#2A2A2A;fontFamily=Verdana;fontColor=#F0F0F0;" vertex="1" parent="1">
                    <mxGeometry x="250" y="430" width="280" height="150" as="geometry"/>
                </mxCell>
                <mxCell id="14" style="edgeStyle=none;html=1;fontFamily=Verdana;fontColor=#F0F0F0;labelBackgroundColor=#2A2A2A;" edge="1" parent="1" source="15">
                    <mxGeometry relative="1" as="geometry">
                        <mxPoint x="270" y="720" as="targetPoint"/>
                        <Array as="points">
                            <mxPoint x="685" y="720"/>
                            <mxPoint x="685" y="780"/>
                            <mxPoint x="270" y="780"/>
                        </Array>
                    </mxGeometry>
                </mxCell>
                <mxCell id="15" value="&lt;div style=&quot;font-size: 14px ; line-height: 19px&quot;&gt;&lt;div&gt;&lt;span&gt;newArray&lt;/span&gt;[&lt;span&gt;j&lt;/span&gt;] = &lt;span&gt;array&lt;/span&gt;[&lt;span&gt;i&lt;/span&gt;]&lt;/div&gt;&lt;div&gt;&lt;span&gt;j=j+1&lt;/span&gt;&lt;/div&gt;&lt;/div&gt;" style="rounded=0;whiteSpace=wrap;html=1;labelBackgroundColor=#2A2A2A;fontFamily=Verdana;fontColor=#F0F0F0;" vertex="1" parent="1">
                    <mxGeometry x="590" y="469.38" width="190" height="71.25" as="geometry"/>
                </mxCell>
                <mxCell id="16" value="Да" style="text;html=1;align=center;verticalAlign=middle;resizable=0;points=[];autosize=1;strokeColor=none;fillColor=none;fontFamily=Verdana;fontColor=#F0F0F0;labelBackgroundColor=#2A2A2A;" vertex="1" parent="1">
                    <mxGeometry x="540" y="475" width="30" height="20" as="geometry"/>
                </mxCell>
                <mxCell id="17" value="&lt;div style=&quot;font-size: 14px; line-height: 19px;&quot;&gt;&lt;span style=&quot;&quot;&gt;i=i+1&lt;/span&gt;&lt;/div&gt;" style="rounded=0;whiteSpace=wrap;html=1;labelBackgroundColor=#2A2A2A;fontFamily=Courier New;fontColor=#F0F0F0;" vertex="1" parent="1">
                    <mxGeometry x="130" y="600" width="120" height="60" as="geometry"/>
                </mxCell>
                <mxCell id="18" value="Конец" style="rounded=1;whiteSpace=wrap;html=1;labelBackgroundColor=#2A2A2A;fontFamily=Verdana;fontColor=#F0F0F0;" vertex="1" parent="1">
                    <mxGeometry x="710" y="285" width="120" height="60" as="geometry"/>
                </mxCell>
                <mxCell id="19" value="Нет" style="text;html=1;align=center;verticalAlign=middle;resizable=0;points=[];autosize=1;strokeColor=none;fillColor=none;fontFamily=Verdana;fontColor=#F0F0F0;labelBackgroundColor=#2A2A2A;" vertex="1" parent="1">
                    <mxGeometry x="390" y="610" width="40" height="20" as="geometry"/>
                </mxCell>
                <mxCell id="20" style="edgeStyle=none;html=1;entryX=0;entryY=0.5;entryDx=0;entryDy=0;fontFamily=Verdana;fontColor=#F0F0F0;labelBackgroundColor=#2A2A2A;" edge="1" parent="1" source="21" target="18">
                    <mxGeometry relative="1" as="geometry"/>
                </mxCell>
                <mxCell id="21" value="length(newArray)=j" style="rounded=0;whiteSpace=wrap;html=1;labelBackgroundColor=#2A2A2A;fontFamily=Verdana;fontColor=#F0F0F0;" vertex="1" parent="1">
                    <mxGeometry x="550" y="285" width="140" height="60" as="geometry"/>
                </mxCell>
            </root>
        </mxGraphModel>
    </diagram>
</mxfile>